# xmcd
#
# Track frame offsets: 
#        151
#        12097
#        24883
#        36852
#        49546
#        64551
#        79836
#        92677
#        111249
#        123731
#        136753
#        160168
#        178652
#        194984
#        203887
#        219621
#        228596
#        241360
#        251197
#        266416
#        286933
#        307671
#        322374
#        342215
#
# Disc length: 4797 seconds
#
# Revision: 0
# Processed by: cddbd v1.5.2PL0 Copyright (c) Steve Scherf et al.
# Submitted via: ExactAudioCopy v0.99pb4
#
DISCID=5b12bb18
DTITLE=Various Artist - The Best of Ray Charles and Shirley Bassey
DYEAR=2009
DGENRE=Soul
TTITLE0=Ray Charles - Mess Around
TTITLE1=Ray Charles - I've Got A Woman 
TTITLE2=Shirley Bassey - Diamonds Are Forever
TTITLE3=Shirley Bassey - Goldfinger
TTITLE4=Ray Charles - Drown In My Own Tears
TTITLE5=Ray Charles - (Night Time Is) The Right Time
TTITLE6=Shirley Bassey - I Who Have Nothing
TTITLE7=Shirley Bassey - All By Myself
TTITLE8=Ray Charles - Marriane
TTITLE9=Ray Charles - Hard Times
TTITLE10=Shirley Bassey - The Masquerade
TTITLE11=Shirley Bassey - If You Don't Understand
TTITLE12=Ray Charles - Georgia On My Mind
TTITLE13=Ray Charles - Hit The Road Jack
TTITLE14=Shirley Bassey - Something
TTITLE15=Shirley Bassey - Big Spender
TTITLE16=Ray Charles - Unchain My Heart
TTITLE17=Ray Charles - Bye Bye Love
TTITLE18=Shirley Bassey - Yesterday
TTITLE19=Shirley Bassey - The Power Of Love
TTITLE20=Ray Charles - What'd I Say
TTITLE21=Ray Charles - I Can't Stop Loving You
TTITLE22=Shirley Bassey - Never, Never, Never
TTITLE23=Shirley Bassey - That Is My Life
EXTD=
EXTT0=
EXTT1=
EXTT2=
EXTT3=
EXTT4=
EXTT5=
EXTT6=
EXTT7=
EXTT8=
EXTT9=
EXTT10=
EXTT11=
EXTT12=
EXTT13=
EXTT14=
EXTT15=
EXTT16=
EXTT17=
EXTT18=
EXTT19=
EXTT20=
EXTT21=
EXTT22=
EXTT23=
PLAYORDER=
